<?xml version="1.0" encoding="UTF-8" standalone="no"?>
<!-- Generator: Adobe Illustrator 25.4.0, SVG Export Plug-In . SVG Version: 6.00 Build 0)  -->

<svg
   version="1.1"
   id="Layer_1"
   x="0px"
   y="0px"
   viewBox="0 0 1024 1024"
   style="enable-background:new 0 0 1024 1024;"
   xml:space="preserve"
   sodipodi:docname="module (1).svg"
   inkscape:version="1.2.2 (732a01da63, 2022-12-09)"
   xmlns:inkscape="http://www.inkscape.org/namespaces/inkscape"
   xmlns:sodipodi="http://sodipodi.sourceforge.net/DTD/sodipodi-0.dtd"
   xmlns="http://www.w3.org/2000/svg"
   xmlns:svg="http://www.w3.org/2000/svg"><defs
   id="defs83"><rect
     x="137.12039"
     y="647.86241"
     width="748.50123"
     height="304.43243"
     id="rect1026" /><rect
     x="137.12039"
     y="647.86243"
     width="339.2773"
     height="65.559863"
     id="rect1026-8" /></defs><sodipodi:namedview
   id="namedview81"
   pagecolor="#ffffff"
   bordercolor="#000000"
   borderopacity="0.25"
   inkscape:showpageshadow="2"
   inkscape:pageopacity="0.0"
   inkscape:pagecheckerboard="0"
   inkscape:deskcolor="#d1d1d1"
   showgrid="false"
   inkscape:zoom="0.79492188"
   inkscape:cx="427.08599"
   inkscape:cy="381.79852"
   inkscape:window-width="1920"
   inkscape:window-height="1001"
   inkscape:window-x="-9"
   inkscape:window-y="-9"
   inkscape:window-maximized="1"
   inkscape:current-layer="Layer_1" />
<style
   type="text/css"
   id="style2">
	.st0{fill:#252241;}
	.st1{fill:#322E51;}
	.st2{fill:#517ABD;}
	.st3{fill:#2FA954;}
	.st4{fill:#FABD0D;}
	.st5{fill:#E84436;}
	.st6{fill:#FFFFFF;}
</style>
<g
   id="g8">
	<rect
   x="0.9"
   y="0.5"
   class="st0"
   width="1023"
   height="1023"
   id="rect4" />
	<path
   d="M1024.4,1024H0.4V0h1024V1024z M1.4,1023h1022.1V1H1.4V1023z"
   id="path6" />
</g>
<g
   id="g12"
   transform="translate(-0.40002441)">
	<circle
   class="st1"
   cx="512.40002"
   cy="384.89999"
   r="230.60001"
   id="circle10" />
</g>


<text
   xml:space="preserve"
   id="text1024"
   style="font-size:85.3333px;white-space:pre;shape-inside:url(#rect1026);display:inline;fill:#ffffff;fill-opacity:1"
   transform="matrix(1.3218525,0,0,1.3218525,-159.04062,-169.93503)"><tspan
     x="137.12109"
     y="725.71544"
     id="tspan1251">ChangeCustomer</tspan></text><text
   xml:space="preserve"
   id="text1024-9"
   style="font-size:56.4864px;white-space:pre;shape-inside:url(#rect1026-8);display:inline;fill:#ffffff;fill-opacity:1"
   transform="matrix(0.67292745,0,0,0.67292745,305.56474,492.45909)"><tspan
     x="137.12109"
     y="699.39754"
     id="tspan1253">by @aarhus</tspan></text><path
   style="fill:#a30000;stroke-width:0.720593;stroke:#ce0000;stroke-opacity:1;fill-opacity:1"
   d="m 393.4894,304.7022 c -21.71432,-10.64481 2.91324,-32.35473 12.75359,-42.53747 27.50958,-27.45208 65.86646,-42.29303 104.44033,-43.76322 -12.31888,-7.15361 -15.3978,-29.73663 3.50996,-28.84042 14.7692,9.49663 27.41164,23.66366 37.70835,37.77026 1.2176,17.5956 -20.36968,26.74473 -29.69767,39.84548 -12.76846,17.76542 -33.2986,-10.07069 -14.63642,-19.75118 8.28175,-7.48961 -15.22446,-0.81673 -19.251,-1.30002 -33.6061,6.40452 -63.43579,27.1683 -83.19315,54.81696 -2.89907,3.07936 -7.36036,5.16593 -11.63399,3.75961 z"
   id="path1103" /><path
   style="fill:#46a300;stroke-width:0.720593;stroke:#000000;stroke-opacity:1;fill-opacity:0.49565217"
   d="m 546.14609,428.4858 c -11.57043,-12.93087 -3.88905,-34.12418 2.30394,-48.47432 9.1112,-18.17682 27.10945,-30.80347 46.80719,-35.00862 -18.56607,-8.833 -34.76923,-27.28074 -34.38684,-49.16584 -2.8231,-31.08651 26.66599,-60.12288 57.85483,-55.97351 32.11913,2.89073 54.90199,38.65976 44.59342,69.07155 -2.11032,16.97399 -22.63037,29.2917 -30.53279,36.46159 30.25495,6.39543 53.08264,35.02858 52.92333,65.95268 2.95587,10.43049 -5.36899,21.68074 -16.27554,18.77817 -40.31162,0 -80.62324,0 -120.93486,0 -0.78423,-0.54723 -1.56845,-1.09447 -2.35268,-1.6417 z"
   id="path1101" /><path
   style="fill:#0023a3;stroke-width:0.720593;stroke:#676767;stroke-opacity:1;fill-opacity:1"
   d="m 345.04164,504.62045 c -13.84273,-11.36898 -4.91612,-33.5562 0.41067,-47.83538 8.76903,-19.24762 27.65806,-31.79905 47.68046,-36.78588 -25.62777,-9.72184 -40.6255,-39.63362 -32.81098,-65.97823 7.54705,-30.82455 45.9486,-49.14405 74.14381,-33.24305 31.90241,15.13151 38.71,62.73817 12.92794,86.57661 -3.62848,7.65626 -29.7152,12.84144 -11.08558,15.2511 31.20281,8.72722 50.66539,41.98083 46.91662,73.49423 -9.22256,18.10209 -35.23974,6.34192 -51.68842,9.89666 -28.78507,-0.67473 -57.8924,1.44313 -86.49452,-1.37606 z"
   id="path1099" /><path
   style="fill:#a30000;stroke-width:0.720593;stroke:#ce0000;stroke-opacity:1;fill-opacity:1"
   d="m 516.61984,561.87282 c -12.56013,-11.24077 -24.40103,-23.44362 -35.19283,-36.39154 -2.17895,-17.20448 19.00887,-26.13859 27.86847,-38.66936 10.90274,-19.73126 36.07857,4.6251 17.69728,16.62222 -8.62868,11.28487 25.53641,-1.20362 33.43078,-4.08442 25.49223,-9.83937 44.90644,-29.79209 61.56499,-50.71318 19.05023,-8.38605 23.44152,20.0123 8.69651,28.20205 -26.22536,32.26752 -65.73932,53.61131 -107.26677,56.89872 12.35159,9.34763 14.80062,32.30317 -6.79843,28.13551 z"
   id="path968" /></svg>
